:SAMPLES-PER-SECOND 30
:FULLY-SPECIFIED
:DEGREES
1
root  -116.77 34.1828 2.19382 -161.14 81.7932 -172.213
RightUpLeg  -40.3626 9.58665 4.21779
RightLeg  59.7049 7.43457 -5.78796
RightFoot  -28.2192 -0.475364 -3.56804
RightToes  -4.07455e-010 -1.59028e-015 9.93923e-017
Spine  9.7423 -1.29521 2.42381
Spine1  0.471228 -1.22552 0.637467
HEad  -46.5919 1.90132 6.78551
LeftShoulder1  9.93923e-017 0 1.22299e-017
LeftArm  -12.0563 34.8604 -79.4634
LeftForeArm  -7.40671 -6.40427 -5.9202
LeftHand  0.912296 5.74091 -7.82864
RightShoulder  1.98785e-016 -4.96962e-017 1.55301e-017
RightArm  -2.32802 -28.5075 82.4787
RightForeArm  -4.93448 9.06662 5.56564
RightHand  1.53233 -13.2478 -5.01594
LeftUpLeg  -43.3964 -12.0246 0.976695
LeftLeg  58.3018 -7.68378 7.65204
LeftFoot  -27.0568 -0.221883 -1.19627
LeftToes  -3.15592e-010 -1.11882e-010 -6.33042e-011
2
root  -115.289 34.0165 2.33382 -160.739 81.292 -172.207
RightUpLeg  -38.2068 9.23939 5.60894
RightLeg  60.2885 6.76957 -7.24215
RightFoot  -29.8513 -0.614008 -4.15385
RightToes  -4.07455e-010 -1.59028e-015 9.93923e-017
Spine  11.3275 -1.14948 0.538835
Spine1  -1.33916 -1.47217 2.54526
HEad  -47.0084 -1.9249 5.87371
LeftShoulder1  9.93923e-017 0 1.22299e-017
LeftArm  -0.766269 30.4443 -80.1764
LeftForeArm  -20.7711 -14.6839 -1.41757
LeftHand  0.811219 5.93348 0.702124
RightShoulder  1.98785e-016 -4.96962e-017 1.55301e-017
RightArm  11.2802 -28.5415 82.2149
RightForeArm  -18.0418 14.9224 -0.49061
RightHand  1.69455 -13.6289 -6.68017
LeftUpLeg  -42.3896 -13.0089 1.58272
LeftLeg  60.4407 -7.75777 8.44484
LeftFoot  -27.8966 -0.471103 -2.83391
LeftToes  -3.15592e-010 -1.11882e-010 -6.33042e-011
3
root  -113.034 34.9562 2.48118 -169.261 81.3299 179.862
RightUpLeg  -30.9911 8.315 5.65675
RightLeg  55.6467 6.72187 -5.8443
RightFoot  -28.7109 -0.503899 -3.83116
RightToes  -4.07455e-010 -1.59028e-015 9.93923e-017
Spine  11.2003 -1.2582 -2.56559
Spine1  -2.40365 -1.86379 2.60613
HEad  -45.4426 -5.2167 4.69195
LeftShoulder1  9.93923e-017 0 1.22299e-017
LeftArm  17.348 29.3338 -79.4806
LeftForeArm  -36.1024 -21.9152 8.19555
LeftHand  0.61351 5.10571 5.59437
RightShoulder  1.98785e-016 -4.96962e-017 1.55301e-017
RightArm  31.6225 -32.1416 82.1132
RightForeArm  -39.2401 19.5829 -16.3212
RightHand  1.74907 -13.4945 -7.86873
LeftUpLeg  -36.5572 -13.3509 0.570881
LeftLeg  58.0592 -7.70913 7.60289
LeftFoot  -22.1187 -0.660867 -7.69221
LeftToes  -3.15592e-010 -1.11882e-010 -6.33042e-011
4
root  -110.243 36.8667 2.52031 178.94 82.7789 169.222
RightUpLeg  -20.9329 6.83673 4.68132
RightLeg  46.9146 8.97771 -1.48369
RightFoot  -19.608 -0.0282809 -1.29176
RightToes  -4.07455e-010 -1.59028e-015 9.93923e-017
Spine  6.06608 -1.43648 -4.1884
Spine1  -1.21451 -2.02035 0.414102
HEad  -42.7431 -3.48611 4.39329
LeftShoulder1  9.93923e-017 0 1.22299e-017
LeftArm  24.1306 31.6721 -77.0463
LeftForeArm  -36.7231 -22.9799 10.5791
LeftHand  0.609564 5.18898 6.87044
RightShoulder  1.98785e-016 -4.96962e-017 1.55301e-017
RightArm  35.6703 -36.2539 81.9768
RightForeArm  -41.333 21.387 -21.4199
RightHand  1.6126 -13.0592 -6.7856
LeftUpLeg  -26.4606 -12.7014 -1.0552
LeftLeg  49.5622 -5.87937 7.32222
LeftFoot  -8.99098 0.612361 -13.8139
LeftToes  -3.15592e-010 -1.11882e-010 -6.33042e-011
5
root  -107.206 39.151 2.44911 178.555 84.8888 170.823
RightUpLeg  -11.4188 5.06955 4.62404
RightLeg  37.431 11.9719 1.65527
RightFoot  2.1335 -0.54332 3.5206
RightToes  -4.07455e-010 -1.59028e-015 9.93923e-017
Spine  -2.04709 -1.22728 -2.75851
Spine1  2.57588 -1.69232 -0.394307
HEad  -34.4221 -1.03288 4.26546
LeftShoulder1  9.93923e-017 0 1.22299e-017
LeftArm  22.9399 36.203 -75.078
LeftForeArm  -33.9691 -21.9943 8.25878
LeftHand  0.901484 6.61418 6.39394
RightShoulder  1.98785e-016 -4.96962e-017 1.55301e-017
RightArm  38.8849 -40.4241 81.3976
RightForeArm  -41.2749 20.9022 -20.93
RightHand  1.39474 -12.5364 -4.31545
LeftUpLeg  -14.0056 -11.7405 -1.28361
LeftLeg  36.4497 -1.97775 6.92271
LeftFoot  7.90434 2.54453 -13.4247
LeftToes  -3.15592e-010 -1.11882e-010 -6.33042e-011
6
root  -104.357 41.1238 2.40901 -171.29 86.4733 -177.478
RightUpLeg  -5.90879 4.91654 5.37551
RightLeg  30.2396 11.7729 1.41334
RightFoot  25.2501 -2.46031 6.98669
RightToes  -4.07455e-010 -1.59028e-015 9.93923e-017
Spine  -8.01188 -0.877178 -1.61563
Spine1  5.42679 -1.37883 0.927991
HEad  -21.6786 -0.668734 3.37987
LeftShoulder1  9.93923e-017 0 1.22299e-017
LeftArm  26.5284 43.8928 -73.7144
LeftForeArm  -40.7578 -23.2884 11.4941
LeftHand  1.08971 7.68245 3.13523
RightShoulder  1.98785e-016 -4.96962e-017 1.55301e-017
RightArm  41.5293 -45.9224 78.9804
RightForeArm  -41.2333 21.0819 -21.0462
RightHand  1.2468 -12.0026 -2.7655
LeftUpLeg  -5.07116 -9.887 -0.688145
LeftLeg  26.0618 -0.20352 5.07152
LeftFoot  19.279 2.05111 -6.96933
LeftToes  -3.15592e-010 -1.11882e-010 -6.33042e-011
7
root  -101.836 42.9534 2.47975 -172.153 87.475 -178.225
RightUpLeg  -5.48359 6.61381 5.6365
RightLeg  28.0472 9.31622 -0.126408
RightFoot  37.0792 -4.11829 8.82422
RightToes  -4.07455e-010 -1.59028e-015 9.93923e-017
Spine  -14.6651 -0.915596 -1.7578
Spine1  12.0526 -1.24908 0.361917
HEad  -18.02 -0.110111 3.92831
LeftShoulder1  9.93923e-017 0 1.22299e-017
LeftArm  27.2061 49.8897 -72.421
LeftForeArm  -43.5693 -25.464 16.5049
LeftHand  0.988775 7.00633 -1.00665
RightShoulder  1.98785e-016 -4.96962e-017 1.55301e-017
RightArm  38.7647 -49.1954 77.579
RightForeArm  -39.6293 22.2642 -21.8739
RightHand  1.20325 -11.5225 -3.07437
LeftUpLeg  -4.21629 -7.89955 -0.668781
LeftLeg  24.8453 -0.346988 4.61266
LeftFoot  23.3596 0.813215 -2.20064
LeftToes  -3.15592e-010 -1.11882e-010 -6.33042e-011
8
root  -99.7335 44.3019 2.57291 -179.046 87.6093 174.825
RightUpLeg  -7.11174 6.68466 5.53113
RightLeg  29.8666 8.4431 -0.743459
RightFoot  31.9813 -3.25022 7.78192
RightToes  -4.07455e-010 -1.59028e-015 9.93923e-017
Spine  -14.0239 -1.3142 -2.71588
Spine1  12.6172 -1.62105 0.192067
HEad  -20.2054 0.727713 5.30653
LeftShoulder1  9.93923e-017 0 1.22299e-017
LeftArm  26.0303 55.0459 -69.793
LeftForeArm  -40.498 -28.358 18.5779
LeftHand  0.883158 6.0688 -3.22483
RightShoulder  1.98785e-016 -4.96962e-017 1.55301e-017
RightArm  37.1844 -51.8963 75.5314
RightForeArm  -39.1678 23.3885 -22.6072
RightHand  1.19623 -11.1864 -3.85672
LeftUpLeg  -8.801 -7.76124 -1.0511
LeftLeg  30.8605 -0.685394 6.19946
LeftFoot  20.2229 0.754337 -2.29407
LeftToes  -3.15592e-010 -1.11882e-010 -6.33042e-011
9
root  -97.7865 45.4837 2.64075 -176.558 87.2321 178.479
RightUpLeg  -9.00507 4.31133 5.54803
RightLeg  31.8037 8.16129 -1.05056
RightFoot  27.6512 -2.55018 6.88469
RightToes  -4.07455e-010 -1.59028e-015 9.93923e-017
Spine  -9.04418 -1.65858 -3.30249
Spine1  11.0379 -2.20235 1.30059
HEad  -22.9151 0.415203 5.19573
LeftShoulder1  9.93923e-017 0 1.22299e-017
LeftArm  27.5005 58.227 -68.0401
LeftForeArm  -40.7028 -30.4133 19.3293
LeftHand  0.947237 6.63008 -3.47475
RightShoulder  1.98785e-016 -4.96962e-017 1.55301e-017
RightArm  38.7729 -53.0076 73.6182
RightForeArm  -40.7432 23.2702 -22.4419
RightHand  1.20227 -11.1987 -3.95315
LeftUpLeg  -11.1731 -8.75975 -1.01614
LeftLeg  32.5905 -1.31161 6.27626
LeftFoot  15.7112 1.17011 -4.34956
LeftToes  -3.15592e-010 -1.11882e-010 -6.33042e-011
10
root  -95.8557 46.3657 2.69807 -173.753 87.327 -177.578
RightUpLeg  -11.0284 1.71072 5.40023
RightLeg  32.4011 9.03053 -0.482367
RightFoot  24.027 -2.03755 6.07989
RightToes  -4.07455e-010 -1.59028e-015 9.93923e-017
Spine  -4.84307 -1.57305 -3.41769
Spine1  10.7238 -2.29435 2.01481
HEad  -25.4984 -0.699869 3.778
LeftShoulder1  9.93923e-017 0 1.22299e-017
LeftArm  30.7946 60.068 -67.1975
LeftForeArm  -42.6222 -31.6567 19.7559
LeftHand  1.05974 7.65355 -3.53526
RightShoulder  1.98785e-016 -4.96962e-017 1.55301e-017
RightArm  42.3811 -53.2826 72.7348
RightForeArm  -43.1434 22.5703 -21.8654
RightHand  1.235 -11.5584 -3.6618
LeftUpLeg  -12.4306 -9.08528 -0.848226
LeftLeg  30.3612 -3.07412 4.5171
LeftFoot  11.4383 1.19876 -5.28159
LeftToes  -3.15592e-010 -1.11882e-010 -6.33042e-011
11
root  -93.9215 46.8506 2.75298 179.428 87.9894 175.239
RightUpLeg  -14.3719 0.392162 4.94228
RightLeg  32.2033 10.5254 0.559308
RightFoot  17.5175 -1.37856 5.00868
RightToes  -4.07455e-010 -1.59028e-015 9.93923e-017
Spine  -2.24078 -1.2561 -3.27593
Spine1  10.094 -1.78274 1.18619
HEad  -26.9815 -0.868976 3.5442
LeftShoulder1  9.93923e-017 0 1.22299e-017
LeftArm  35.6156 61.7192 -65.5406
LeftForeArm  -43.0594 -32.2769 20.0019
LeftHand  1.06334 7.72307 -4.33984
RightShoulder  1.98785e-016 -4.96962e-017 1.55301e-017
RightArm  46.7669 -54.2386 72.4795
RightForeArm  -45.085 22.0267 -21.4206
RightHand  1.24666 -11.8001 -3.27488
LeftUpLeg  -15.4836 -8.88771 -0.889513
LeftLeg  27.4745 -4.54387 2.99318
LeftFoot  7.48044 1.00253 -5.3031
LeftToes  -3.15592e-010 -1.11882e-010 -6.33042e-011
12
root  -92.0294 46.9454 2.79173 176.595 88.5266 171.43
RightUpLeg  -18.5122 -0.163963 4.75526
RightLeg  31.1753 11.2461 1.049
RightFoot  12.6143 -1.17922 5.1937
RightToes  -4.07455e-010 -1.59028e-015 9.93923e-017
Spine  0.101159 -1.02689 -2.57661
Spine1  8.93231 -1.18417 -0.0244448
HEad  -28.3922 0.202576 4.45893
LeftShoulder1  9.93923e-017 0 1.22299e-017
LeftArm  39.7773 62.7497 -64.2959
LeftForeArm  -43.2412 -31.9678 19.8584
LeftHand  1.02764 7.41739 -6.15602
RightShoulder  1.98785e-016 -4.96962e-017 1.55301e-017
RightArm  50.0184 -55.7114 72.4219
RightForeArm  -46.1124 21.6632 -21.1409
RightHand  1.17311 -11.4261 -2.64982
LeftUpLeg  -19.2682 -9.39712 -0.429121
LeftLeg  24.0751 -4.02944 2.5805
LeftFoot  5.34628 1.01462 -6.05461
LeftToes  -3.15592e-010 -1.11882e-010 -6.33042e-011
